<svg width="241" height="52" xmlns="http://www.w3.org/2000/svg"><g fill="none" fill-rule="evenodd"><path d="M92.3501206 26.5704943c2.4836848 0 3.997701-1.1631794 3.997701-2.9395316v-.0647067c0-1.9381188-1.5140162-2.9718849-4.0326154-2.9718849h-3.2771944v5.9761232h3.3121088zM82.051954 15.3300212h10.8028387c6.3734685 0 10.4774993 2.9395316 10.4774993 7.9450548v.0647067c0 5.3290565-4.5722014 8.1407155-10.8377527 8.1407155h-3.4565275v6.4598827H82.051954V15.3300212zM106 15h7v9h9v-9h7v23h-7v-8.5h-9V38l-7.007665-.0596191L106 15zm34.943038 14.4776726l-9.732255-14.1476514h8.085754l5.268481 8.2362348 5.305571-8.2362348h7.940617l-9.732255 14.0521321v8.5582276h-7.135913v-8.4627083zm16.82076 5.5036453l3.995916-4.2644789c2.555755 1.8183965 5.405088 2.7772734 8.40284 2.7772734 1.922933 0 2.958609-.5945668 2.958609-1.5865628v-.0662382c0-.960454-.849744-1.4887826-4.36615-2.2158258-5.514364-1.1244724-9.769606-2.5123206-9.769606-7.2751631v-.0662382c0-4.297598 3.811614-7.4060625 10.027302-7.4060625 4.405293 0 7.846674 1.0582342 10.660125 3.0753453l-3.591432 4.5294318c-2.368191-1.4872055-4.958197-2.2804869-7.252995-2.2804869-1.738631 0-2.590005.660805-2.590005 1.4872055v.0662382c0 1.0582342.887256 1.5203246 4.477056 2.2489449 5.959623 1.1560144 9.6587 2.8750536 9.6587 7.2073478v.0662382c0 4.7281464-4.180217 7.540116-10.472562 7.540116-4.587963 0-8.955744-1.291645-12.137798-3.8370847zM183 38V15h7v23h-7zm9.36513-11.0859141v-.0658737c0-6.7081374 5.602599-11.9701904 13.164457-11.9701904 5.102564 0 8.384244 1.9730738 10.596666 4.8025056l-5.207918 3.7155898c-1.427774-1.6452738-3.067828-2.6976844-5.459507-2.6976844-3.495532 0-5.957971 2.7290528-5.957971 6.0839057v.0658737c0 3.452095 2.462439 6.1497794 5.957971 6.1497794 2.603958 0 4.138659-1.1182843 5.637193-2.7949265l5.20949 3.4191582c-2.353941 2.9925476-5.530268 5.1961793-11.060535 5.1961793-7.135727 0-12.879846-5.0314951-12.879846-11.9043167zm25.298976 8.067232l3.995916-4.2644789c2.555755 1.8183965 5.405088 2.7772734 8.40284 2.7772734 1.922933 0 2.958609-.5945668 2.958609-1.5865628v-.0662382c0-.960454-.849744-1.4887826-4.366149-2.2158258-5.514364-1.1244724-9.769607-2.5123206-9.769607-7.2751631v-.0662382c0-4.297598 3.811614-7.4060625 10.027302-7.4060625 4.405294 0 7.846674 1.0582342 10.660125 3.0753453l-3.591431 4.5294318c-2.368192-1.4872055-4.958198-2.2804869-7.252995-2.2804869-1.738631 0-2.590006.660805-2.590006 1.4872055v.0662382c0 1.0582342.887256 1.5203246 4.477057 2.2489449 5.959623 1.1560144 9.658699 2.8750536 9.658699 7.2073478v.0662382c0 4.7281464-4.180217 7.540116-10.472561 7.540116-4.587964 0-8.955745-1.291645-12.137799-3.8370847z" fill="#3D9D9E"/><path d="M70.2 26.9793333s-.1791111-.8117777-.5373333-2.4353333l-1.4213334-2.366-2.3746666-2.3833333-3.0766667-2.054L58.9333333 15.912 54.522 14.3866667l-4.9226667-1.1873334L47.138 12.818l-.416-.7886667-.8666667-1.612L44.9886667 8.892 44.122 7.47933333l-.3813333-.598L42.874 5.65066667l-.8666667-1.118-.8666666-1.066-.858-.86666667-.3553334-.35533333L39.13 1.586l-.3813333-.26866667-.754-.51133333L37.622.63266667l-.6586667-.286-.3293333-.13-.416-.104-.416-.06933334L35.5333333 0h-.8666666L34.06.08666667l-.3726667.08666666L33.28.29466667l-.5806667.24266666-.3986666.17333334L31.9453333.91l-.754.50266667-1.2306666 1.02266666L29.146 3.302l-.858 1.03133333-.3553333.45933334L27.4733333 5.434 27.092 5.96266667l-.8666667 1.28266666L25.3586667 8.658 24.492 10.14l-.8666667 1.5946667L23.088 12.766l-.8666667.0953333-5.1133333 1.092-4.5846667 1.4213334L8.54533333 17.108 5.2 19.0666667 2.6 21.268.86666667 23.6253333 0 26.1126667.08666667 28.6l.86666666 3.1806667.86666667 2.6L2.756 36.66l.86666667 2.054.86666666 1.5686667L5.356 41.4093333l1.62066667 2.002.86666666.6586667.25133334.1993333L9.36 45.2833333l.754.5893334L13.026 47.502l3.4666667 1.4126667 3.952 1.144.4506666.0866666 4.186.8666667 4.4546667.5286667 4.5933333.2253333L38.714 51.6533333l4.524-.442 4.264-.728.39-.0866666 4.0733333-1.0573334 3.6486667-1.326 3.0853333-1.5686666 2.4873334-1.7333334L62.4 44.2s.6153333-.6557778 1.846-1.9673333L65.1126667 41.132l.8666666-1.5686667 1.1613334-2.184.8666666-2.0973333.8666667-2.6.8666667-3.1633333L70.2 26.9793333z" fill="#F8FFFF" fill-rule="nonzero"/><path d="M70.2 26.9793333L69.6626667 24.544l-1.4213334-2.366-2.3746666-2.3833333L62.79 17.732l-3.8566667-1.82L54.522 14.3866667l-4.9226667-1.1873334L47.138 12.818l-.416-.7886667-.8666667-1.612L44.9886667 8.892 44.122 7.47933333l-.3813333-.598L42.874 5.65066667l-.8666667-1.118-.8666666-1.066-.052-.052-.806-.81466667-.3553334-.35533333L39.13 1.586l-.3813333-.26866667-.754-.51133333L37.622.63266667l-.6586667-.286-.3293333-.13h-.0433333L36.218.13l-.416-.078L35.5333333 0h-.8666666L34.06.08666667l-.3726667.08666666L33.28.29466667l-.5806667.24266666-.3986666.17333334L31.9453333.91l-.754.50266667-1.2306666 1.02266666L29.146 3.302l-.858 1.03133333-.3553333.45933334v.052L27.4733333 5.434 27.092 5.96266667l-.8666667 1.28266666L25.3586667 8.658 24.492 10.14l-.8666667 1.5946667L23.088 12.766l-.8666667.0953333-5.1133333 1.092-4.5846667 1.4213334L8.54533333 17.108 5.2 19.0666667 2.6 21.268.86666667 23.6253333 0 26.1126667.08666667 28.6l.86666666 3.1806667.86666667 2.6L2.756 36.66l.86666667 2.054.86666666 1.5686667.86666667 1.118 1.62066667 2.002.86666666.6586666.25133334.1993334L9.36 45.2746667l.754.5893333 2.912 1.6293333L16.4926667 48.906l3.952 1.144.4506666.0866667 4.186.8666666L29.536 51.532l4.5933333.2253333L38.714 51.6446667l4.524-.442 4.264-.728.39-.0866667 4.0733333-1.0573333 3.6486667-1.326L58.6993333 46.436l2.4873334-1.7333333L62.4 44.2l1.846-1.9673333.8666667-1.1006667.8666666-1.5686667 1.1613334-2.184.8666666-2.0973333.8666667-2.6.8666667-3.1633333L70.2 26.9793333zM64.766 40.846l-1.8546667 1.976L60.97 44.2l.3466667-.6846667L62.01 41.652l2.73-1.924 1.2393333-1.3173333-.3986666.9533333L64.766 40.846zm-5.2 4.862l-.6933333.572-3.068 1.5513333-2.7993334 1.014L53.43 48.1l3.77-1.3693333 2.522-1.274-.156.2513333zm-11.2666667 4.4633333l-.2946666.078-3.796.6586667v-.078l.2253333-.7453333 4.576-.7713334 3.8566667-1.04-.26.4506667-.4766667.4506667-3.8306667.9966666zm-9.386 1.3086667l-4.394.104v-.9186667l4.7926667-.104 4.6366667-.4506666L43.784 50.648l-.2166667.3466667H43.42L38.9133333 51.48zM29.77 51.3673333l-4.4286667-.5286666H25.142l-.2513333-.3813334-.1906667-.52 4.5413333.5373334 4.8186667.234v.91l-4.29-.2513334zm-9.9146667-2.834l-4.108-1.1873333L15.236 46.0806667 14.8113333 44.616 18.876 45.7946667l4.7146667.9446666.2686666 1.6293334L24.1106667 49.4l-4.2553334-.8666667zm-6.5346666-1.1786666L10.4 45.7426667l-.73666667-.5893334-.13-.2166666L11.8126667 46.202l3.64 1.4646667.4246666.7106666-2.5566666-1.0226666zm-9.24733337-8.71L3.77866667 37.96l.86666666 1.0313333 2.496 1.9933334.73666667 1.898.312.6066666-1.64666667-1.2566666-1.638-2.0453334-.832-1.5426666zm-3.068-14.1786667l.676 2.6L1.118 28.73l-.69333333-2.5133333L1.00533333 24.466zM63.7346667 35.5333333l-.52-.8666666.7366666-.8146667L64.61 32.7773333l.8666667 1.508-1.742 1.248zM62.4 39l-.7106667 2.3486667-3.38 1.7333333L54.6 44.4426667l.4073333-1.976.5113334-2.782L57.3126667 39l2.3746666-.8666667 2.392-1.2133333.8666667-.4246667L62.4 39zm-1.4386667 4.3333333l-.702 1.3606667-.0953333.052-3.094 1.5686667-3.4666667 1.2566666.3553334-.9273333L54.47 44.9106667 58.4393333 43.472 61.438 41.938l-.4766667 1.3953333zm-12.0726666 5.538l-4.394.7453334.208-.988L44.928 46.982l4.8186667-.8146667 4.2466666-1.1006666L53.56 46.54l-.468 1.248-4.2033333 1.0833333zM39.2773333 50.154l-4.7926666.1126667v-2.6173334l5.0873333-.13L44.5206667 47.034l-.2253334 1.4993333-.234 1.118-4.784.5026667zm-9.9926666-.1386667l-4.7233334-.5546666L24.2666667 48.308l-.2253334-1.508 4.8706667.5633333 5.1046667.2513334V50.232l-4.732-.2166667zm-10.296-4.6106666l-4.3333334-1.248L14.1266667 41.912l-.494-2.6 2.496.7193333c.0342277.0078013.0697722.0078013.104 0L17.966 40.534l3.38.676h.0693333l1.4993334.2946667.2946666 2.704.2773334 2.0106666-4.498-.8146666zm-3.77 1.7333333L12.012 45.8293333 8.97866667 44.096l-.71933334-1.3953333-.546-1.3433334L10.478 42.9086667 14.3086667 44.46l.5026666 1.7333333.4073334.9446667zM4.92266667 38.714L3.328 36.738l-.17333333-.338v-.052l-.78-2.2966667-.64133334-2.1146666.09533334.1213333L2.938 33.4446667 5.538 35.542l.74533333 2.938.65 1.8373333L4.92266667 38.714zM17.4286667 17.9833333l.4073333 2.548-3.9693333 1.222L13.364 19.2226667l4.0646667-1.2393334zM54.1233333 18.382l3.8913334 1.3433333-.5113334 2.5133334-3.77-1.3086667.39-2.548zm10.946 5.3386667L66.95 25.5493333l-.7106667 2.34-1.8286666-1.794.6586666-2.3746666zM65.936 34.008l-1.0053333-1.6726667.6326666-1.3433333 1.0573334 1.7333333L66.0053333 33.93l-.0693333.078zm-6.3353333 3.7613333l-.26.0953334.0866666-.5546667.3466667.3726667-.1733333.0866666zm-2.236.8146667l-.676-1.1613333.754-1.4213334.1646666-1.04.5893334.8666667.8666666 1.1093333-.1646666 1.118-1.534.5286667zM54.6 42.38l-.4766667 2.2186667-4.4546666 1.1526666L44.98 46.5486667l.234-2.002L45.4653333 41.86 50.544 40.9933333l4.5153333-1.1786666L54.6 42.38zm-15.08 4.7233333l-5.0786667.1213334V42.562h.1213334l3.4666666-.078H39.832l5.2346667-.5806667-.2426667 2.6L44.5726667 46.618 39.52 47.1033333zm-10.5733333-.1386666l-4.9746667-.572-.286-2.132-.286-2.6 4.2813333.52 6.2833334.3033333V47.216l-5.018-.2513333zm-10.8333334-6.7513334L16.796 39.8666667l-.208-.1213334.6673333-1.612.6673334-1.6206666 1.82 1.014L21.996 38.454l-.5026667 1.7333333-.1906666.6153334-3.1893334-.5893334zm-3.9 3.77l-3.536-1.4386666L7.488 40.7333333l-.71066667-2.3486666L6.136 35.88l1.77666667.9966667 1.248.7106666 4.01266663 1.612L13.7106667 41.99l.5026666 1.9933333zm0-19.2486666l.4593334 1.5686666-3.2586667 1.43-.546-1.534 3.3453333-1.4646666zM18.3126667 20.8l.78-.1646667L18.512 21.866l-.1993333-1.066zm6.214-9.7066667l.5286666-.936.2513334.5806667-.8233334 1.586L23.816 13.6933333l-.1386667-.3466666v-.728l.8493334-1.5253334zm1.7766666-3.01599997l.546-.86666666.182.45933333L26.234 9.06533333l-.6673333 1.19599997-.104-.234v-.60666663l.8406666-1.34333334zm21.1033334 6.65599997l.8666666 1.7333334-.1126666.8666666-.2773334.5113334L47.216 16.302l-.8666667-1.7333333.3813334-.7106667v-.1906667l.676 1.066zM53.6293333 21.346L57.408 22.6373333 56.888 24.674 53.222 23.4l.4073333-2.054zM65.416 30.186l-1.794-1.7333333.65-1.9066667 1.8286667 1.794L65.416 30.186zm-2.1493333-2.0106667l-2.4786667-1.664.5893333-1.95 2.548 1.6813334-.6586666 1.9326666zM61.6373333 31.642L60.97 32.5086667l-2.2793333-1.4993334.598-.8666666.6066666-1.2393334L62.3046667 30.498l-.6673334 1.144zM59.67 34.8053333l-.8146667-.598-.4333333-.442.1473333.0606667h.7193334l1.378 1.3693333h-.2253334l-.7713333-.39zm-1.1526667.728l-.8666666-1.3086666L57.538 33.8l.286.4073333.8666667 1.066.1646666.7366667-.338-.4766667zm-2.106 1.43l-.6846666-1.274-.7973334-1.6466666.6846667-1.3173334.13-.8666666.5893333 1.0746666L57.2 34.372l-.234 1.4646667-.5546667 1.1266666zm-1.5166666 1.7333334l-1.5773334 1.17h-.078l-.624-1.4646667L52 36.7033333l1.5686667-1.17 1.04-1.1006666.7106666 1.4733333.7973334 1.482-1.222 1.3086667zM50.466 40.5773333l-2.6.4333334-.1473333-.4853334-.468-1.7333333 2.366-.8666667L51.5753333 36.946 52.208 38.5666667l.6586667 1.404-2.4006667.6066666zm-5.2.8666667l-3.718.3553333L41.34 40.066l2.86-.468 2.652-.702.4593333 1.7333333.13.442L45.266 41.444zm-5.486.5286667h-1.7333333L34.814 42.0593333V40.456l3.0853333-.0606667 3.0506667-.286.2166667 1.7333334-1.3866667.13zM25.0813333 39l-2.548-.7626667L23.036 36.4l.5026667-1.898 2.3053333.6673333 2.6.5113334-.286 1.976L27.898 39.52 25.0813333 39zm-2.9466666-.8666667L19.942 37.2666667l-1.8633333-1.0313334L18.772 34.502l.65-1.7853333 1.664.9186666 2.0366667.8666667-.5113334 1.924-.4766666 1.7073333zM16.874 38.0466667L16.2413333 39.494l-1.508-1.222-1.0746666-1.352.806-1.4733333.728-1.43.8666666 1.092 1.456 1.1873333L16.874 38.0466667zM12.3673333 38.298l-.0866666.13-1.092-.442V36.4l.8666666-1.092.5286667-.7886667v.9273334L13.1906667 36.894l-.8233334 1.404zm-6.43066663-3.0073333l-.32066667-.26L4.758 33.8l1.30866667-1.7333333.65866666 1.1006666.71933334.8666667-1.08333334 1.4993333-.42466666-.2426666zM23.1313333 16.224l.728-1.534.416.5026667.78.6326666-.7106666 1.8113334-.65 1.7333333-.7886667-.624-.6153333-.7626667.8406666-1.7593333zm1.7333334-3.614L25.584 11.2233333l.312.3986667.6326667.494-.676 1.6466667-.65 1.6293333-.6586667-.5286667-.52-.6413333.8406667-1.612zM26.598 9.36866667l.6933333-1.222.26.30333333.494.40733333-.6846666 1.42133337-.65 1.456-.5286667-.416-.416-.5373334.832-1.41266663zm6.9333333-6.786l.182.01733333h.1733334l-.234.68466667-.26.86666666-.4593334-.00866666-.3466666-.104L33.0113333 3.25l.52-.66733333zm-.338-.58933334L33.592 1.664h.0433333l-.2946666.364-.1473334-.03466667zm2.1233334 0h.104l.13.38133334H35.23v-.40733334l.0866667.026zm.9533333.26l-.2946667.052-.13-.37266666H35.958l.312.32066666zM43.8273333 8.32L44.694 9.71533333 44.616 10.296l-.156.3033333L43.7753333 9.334l-.7886666-1.38666667.234-.45066666L43.8273333 8.32zM45.11 12.8353333l.8233333 1.638-.5806666.6326667-.7453334.52L43.966 13.9706667l-.65-1.664.6933333-.4853334.3986667-.4246666.702 1.4386666zM46.0893333 14.898L46.8 16.4666667l.7886667 1.82-.7193334.7453333-.8666666.624-.6413334-1.7766667L44.7026667 16.042l.8666666-.598.52-.546zm1.7333334 3.8046667L48.5333333 20.332 49.348 22.2213333l-.8666667.8666667-1.0226666.728L46.8 21.9786667 46.1326667 20.046l.988-.7106667.702-.6326666zM49.556 22.6633333l.728 1.7333334.8146667 1.9066666L50.154 27.3l-1.1786667.8233333L48.334 26.26l-.7193333-1.9933333 1.144-.8666667.7973333-.7366667zM58.9333333 29.874l-.6066666.8666667-2.86-1.274.5113333-.91.5113333-1.3086667L59.566 28.6l-.6326667 1.274zM56.706 32.7253333l-.8666667-1.586v-.078l.182.3033334L56.888 32.838l.0693333.2946667-.2513333-.4073334zM54.6866667 33.592l-.6673334-1.4473333-.806-1.8113334.6413334-1.1873333.0953333-.6586667.65 1.118.8666667 1.638-.208 1.3346667-.572 1.014zm-1.3953334 1.6466667l-1.4993333 1.066-.6413333-1.7333334L50.492 32.6906667 52 31.694l.9186667-.988.7453333 1.638.7886667 1.7333333-1.1613334 1.1613334zm-3.822 2.288L47.164 38.3933333 46.7046667 36.582l-.494-1.9413333 2.1406666-.7713334 1.7333334-.8666666.6326666 1.8113333.6673334 1.7333333-1.9153334.9793334zm-5.3473333 1.664l-2.8513333.494L41.028 37.7953333 40.7853333 35.828l2.6-.4506667 2.4093334-.624.4766666 1.9153334L46.8 38.4973333l-2.678.6933334zm-6.292.8666666L34.7533333 40.118v-3.8826667l2.7993334-.078L40.3173333 35.906 40.56 37.8733333l.234 1.8893334-2.964.2946666zM31.2693333 39.962l-2.9726666-.3466667.26-1.872.286-1.9673333 2.7126666.312 2.808.1473333v3.874l-3.094-.1473333zm-5.3126666-5.2l-2.314-.6673333.5026666-1.976.5026667-1.976 2.0626667.598L29.0333333 31.2l-.26 2.0626667-.286 2.0106666L25.9566667 34.762zM23.244 33.956l-1.9673333-.8146667-1.7333334-.9446666.6933334-1.8893334.676-1.8893333 1.456.8666667L24.206 30.03l-.4593333 2.0366667L23.244 33.956zm-4.03-2.002l-1.2046667-.962-.8666666-1.118.8146666-1.8546667.728-1.6726666.702.8666666 1.196.9446667-.7106666 1.976-.6586667 1.82zm-3.406-.234l-.65 1.3866667-.4246667-.9446667v-1.3433333L15.6 29.1633333 16.146 28.106v.5113333l.4853333 1.222L15.808 31.72zm-4.1426667 3.302l-.1473333.182.1646667-.494.8666666-1.0573333V33.592l-.052.1386667-.832 1.2913333zm-2.03666663 2.2966667L9.97533333 36.322 10.79 35.698l.234-.2426667-.26.7626667-.86666667.91-.26866666.1906667zM8.80533333 36.4l-.338.052 1.00533334-1.378.72800003-.0606667H10.27l.13-.0866666-.78866667 1.1006666-.806.3726667zM20.3926667 22.334l.5806666.7453333 1.066.8666667-.7106666 1.9846667-.6326667 1.846L19.63 26.91l-.8666667-1.014.8146667-1.898.8146667-1.664zM23.27 21.8486667L23.9286667 20.02l1.118.6153333 1.4126666.572L26 23.2093333l-.5286667 1.924-1.5426666-.6326666-1.352-.754.6933333-1.898zM24.7606667 17.758l.676-1.7333333.9186666.52L27.5686667 17.03l-.5113334 1.872-.468 1.898-1.352-.5546667-1.17-.6326666.6933334-1.8546667zm1.5166666-3.8393333L26.9186667 12.35l.78.4333333.988.39L28.184 14.9066667 27.69 16.64l-1.1526667-.4593333-.9706666-.546.7106666-1.716zm1.456-3.5186667l.65-1.36066667.5893334.32933334.78.312L29.25 11.1713333 28.7646667 12.74l-.936-.3726667-.806-.4506666L27.7333333 10.4zM27.82 8.09466667L27.482 7.696l.7886667-1.222.702-1.00533333.1646666.19933333.416.39866667L28.886 7.24533333l-.6153333 1.248L27.82 8.09466667zM31.2866667 2.236L30.732 2.73866667V2.6l.5286667-.39866667.026.03466667zm.2946666 1.85466667l.338.13866666-.364.97066667-.4766666 1.10933333L30.5413333 6.084l-.416-.22533333L30.7666667 4.836l.624-.86666667.1906666.12133334zM36.634 6.93333333h-1.4993333V4.74066667h.494l.52-.052.2513333 1.066.234 1.17866666zM42.0593333 5.72L42.926 6.89866667l-.0693333.442-.104.19933333L42.094 6.474l-.7973333-1.13533333L41.47 5.00933333 42.0593333 5.72zm1.3433334 3.81333333L44.2 10.9806667l-.4853333.52-.598.416-.65-1.4733334-.6413334-1.45599997.5286667-.364.2946667-.32066666.754 1.23066666zM43.55 14.1526667L44.2173333 15.886l-1.0486666.5286667-1.222.4506666L41.496 15.132l-.468-1.7333333L42.0506667 13l.8666666-.4333333.6326667 1.586zm.806 2.1146666l.6326667 1.7333334.676 1.8633333-1.248.598-1.4213334.5286667-.4593333-1.924-.4853333-1.872 1.2826666-.442L44.356 16.2673333zm1.4473333 4.0213334L46.436 22.1433333l.676 1.95-1.43.7106667-1.638.6066667L43.5673333 23.4l-.4766666-1.9933333 1.482-.5546667 1.2306666-.5633333zM47.2506667 24.492l.6326666 1.9153333.65 1.924L46.93 29.146l-1.8806667.6933333-.468-2.002-.468-2.0626666 1.7333334-.6153334 1.404-.6673333zM48.698 28.756l.6326667 1.898.676 1.9326667-1.8026667.8666666-2.0886667.7626667L45.656 32.2746667 45.1706667 30.238 47.112 29.5273333 48.698 28.756zm1.664-1.118l.8666667-.8666667.728 1.7333334.7886666 1.8373333-1.04 1.0313333-1.3346666.9533334-.6413334-1.8373334-.6673333-1.976 1.3-.8753333zm4.2726667.4506667L53.768 26.3553333l-.0346667-.1906666 2.4613334.8666666-.52 1.3173334-.4333334.78-.6066666-1.04zM52.078 25.2893333l.078-.5026666L52.7713333 26 53.638 27.8026667l-.182 1.2046666-.468.8666667-.676-1.5686667-.8146667-1.924.5806667-1.092zM43.3333333 34.97l-2.6.4506667-.234-2.0193334-.2513333-2.08 2.366-.39 2.158-.598.4766667 2.002.468 1.9673334L43.3333333 34.97zM37.596 35.7153333L34.814 35.802v-4.1166667l2.5133333-.0606666 2.5393334-.2513334.2426666 2.08.2426667 2.0193334-2.756.2426666zm-5.98-.0606666l-2.6953333-.312.2773333-2.0193334.2686667-2.054 2.444.286 2.5133333.1213334v4.1166666l-2.808-.1386666zm-4.7493333-5.3213334l-2.0713334-.6066666.468-1.9933334.5026667-2.002 1.8373333.5373334L29.64 26.676v.1733333a.37266965.37266965 0 0 0 0 .0433334l-.26 1.872-.2773333 2.054-2.236-.4853334zM26.416 23.296l.4506667-1.95L28.47 21.7966667l1.7333333.3553333L29.926 24.1973333 29.666 26.234l-1.9326667-.39-1.8546666-.5373333L26.416 23.296zm1.066-4.2293333L27.9846667 17.212l1.3606666.3813333 1.5253334.312L30.5933333 19.812l-.26 1.9413333L28.6 21.398l-1.6033333-.4506667.4853333-1.8806666zM28.6 15.002l.494-1.6726667 1.118.312L31.46 13.884l-.2773333 1.7333333-.26 1.8373334-1.456-.2773334-1.352-.3813333L28.6 15.002zm1.1093333-3.6573333l.494-1.4906667.8666667.2513333.9966667.208-.26 1.5513334-.2773334 1.6206666-1.196-.2426666-1.1006666-.312.4766666-1.586zM29.198 9.03933333l-.598-.37266666.6413333-1.3L29.9 6.214l.442.24266667.546.22533333-.4853333 1.25666667L29.9173333 9.282 29.198 9.03933333zM31.304 6.864l.6673333.19066667.7106667.13866666-.26 1.3-.2686667 1.404L31.2 9.70666667 30.3333333 9.464 30.81 8.12066667 31.304 6.864zm6.552.26866667l.6846667-.17333334.4593333 1.248.468 1.326-.8666667.22533334-.988.16466666-.26-1.36933333-.234-1.29133333.7366667-.13zM38.3673333 5.304l-.4246666-.97066667L38.272 4.212l.3033333-.156.6326667.92733333L39.8666667 6.006l-.442.22533333-.572.208-.442-1.13533333h-.0433334zM38.116 2.704l-.5806667-.624.0433334-.04333333L38.272 2.6l.7106667.66733333-.13.12133334-.1473334.078L38.116 2.704zm2.158.86666667l.8666667.86666666-.052.312L41.028 4.862l-.6413333-.86666667-.754-.86666666.0866666-.182.5546667.624zm1.4473333 3.068l.7453334 1.25666666-.364.39866667-.4506667.312-.624-1.26533333-.65-1.18733334L40.7333333 5.876l.208-.208.78.97066667zM42.1026667 10.582l.6586666 1.5513333-.8666666.442-.9793334.3553334-.468-1.5946667L39.988 9.84533333l.8146667-.286.65-.338.65 1.36066667zm-1.014 4.55L41.548 16.9173333l-1.3866667.364-1.5166666.2513334-.2426667-1.82-.2426667-1.7333334 1.274-.208L40.612 13.468l.4766667 1.664zM41.652 17.3333333L42.1373333 19.188l.4593334 1.924-1.638.4333333L39.156 21.84l-.2166667-1.9066667-.2426666-1.924 1.534-.26 1.4213333-.416zm1.0486667 4.186L43.16 23.478l.4853333 2.0106667-1.9066666.5026666-2.0453334.3553334-.2426666-2.08L39.208 22.23l1.8286667-.2946667 1.664-.416zm1.04 4.3766667L44.2 27.924l.468 2.0366667-2.1406667.5633333-2.3313333.39-.2166667-2.0626667-.2426666-2.0886666 2.08-.364 1.924-.5026667zM37.336 31.2l-2.496.0606667v-4.186L37.0586667 27.014l2.2706666-.1473333L39.572 28.938l.2253333 2.0713333L37.336 31.2zm-5.408-.0693333L29.4666667 30.862l.286-2.0713333.26-1.9413334v-.0606666l2.1493333.26 2.2273333.104V31.33L31.928 31.1306667zm8.0946667-24.76933337l.6413333 1.17.6413333 1.29133334-.6586666.34666666-.78.27733334L39.416 8.07733333l-.416-1.248.5806667-.21666666.442-.25133334zM39.5893333 9.958l.4593334 1.4906667.468 1.612-1.1613334.2946666-1.222.208-.2426666-1.6466666L37.648 10.4l1.0053333-.1646667.936-.2773333zm-2.496 16.6573333L34.892 26.676v-4.1253333l1.9673333-.0173334L38.7746667 22.36 39 24.3446667l.2426667 2.0626666-2.1493334.208zM32.266 26.572l-2.1406667-.2686667.26-2.0453333.286-2.028 1.8893334.2166667 1.9326666.104V26.6586667L32.266 26.572zm-.3726667-12.61l1.3346667.156 1.378.078v3.5706667l-1.6726667-.0433334L31.3386667 17.55l.26-1.846.2946666-1.742zm5.8586667.0606667L37.986 15.756l.2426667 1.8286667-1.6033334.156H34.996V14.1613333h1.3606667L37.752 14.0226667zm.7713333 5.9106666l.2253334 1.95-1.898.182-1.9153334.0606667v-3.9086667L36.634 18.2l1.6206667-.156.2686666 1.8893333zm-7.228-1.9933333l1.6033334.182L34.58 18.2v1.924l-.0433333 1.9933333L32.6213333 22.022l-1.8806666-.2166667.286-1.9586666L31.2953333 17.94zm6.162-5.9886667l.234 1.6466667L36.4 13.7453333l-1.3346667.0433334V10.556h1.066l1.1353334-.156.1906666 1.5513333zm-2.7906666.182v1.664l-1.3606667-.078L31.9886667 13.572 32.266 11.9513333 32.526 10.4l1.066.13h1.0833333l-.0086666 1.6033333zM39.338 3.55333333l.6933333.78.702.962-.2426666.26-.3293334.234-.5806666-1.02266666-.624-.91.208-.14733334.1733333-.156zm-2.6 3.77L37.206 10.036l-1.0486667.104h-1.04V7.39266667h.78L36.738 7.32333333zM34.6666667 8.71v1.43H33.592l-1.04-.13.546-2.71266667.7886667.08666667H34.684l-.0173333 1.326zm3.8566666-6.63l.7886667.624v.156l-.6586667-.624-.598-.47666667.468.32066667zm-.7366666.91L38.35 3.718l-.2166667.12133333-.3553333.13-.4506667-.86666666-.39-.66733334H37.024L37.1453333 2.366l.6413334.624zM37.986 5.46l.4246667 1.10066667-.6326667.16466666-.728.12133334L36.816 5.668l-.1993333-1.00533333.4506666-.078L37.518 4.472l.468.988zm-3.2066667-1.99333333v.86666666H33.8l.2426667-.86666666.26-.74533334H34.7793333v.74533334zm-.572 1.248H34.736V6.916h-.78l-.7453333-.08666667.26-1.118.2513333-1.04.4853333.04333334zm-1.1526666.86666666l-.26 1.15266667-.728-.078L31.46 6.48266667l.4593333-1.092.4766667-.97933334.4333333.13.4333334.08666667-.208.95333333zm-2.6-.99666666l-.6326667 1.014L29.4666667 5.434l-.1993334-.234L30.03 4.24666667 30.7233333 3.484l.0953334.12133333.182.14733334-.546.832zm-.598-1.118l.572-.52.0606666.13866666L29.718 3.952l-.65.81466667V4.37666667l.7886667-.91zM23.7293333 24.8993333l1.612.6586667L24.83 27.6033333l-.494 1.9933334-1.7766667-.7193334-1.508-.8666666L21.736 26.052l.6673333-1.8893333 1.326.7366666zm-5.122.5113334l-.2686666-.6673334L18.2953333 23.634 19.162 21.7966667 19.6906667 20.696v.208l.39.9533333L19.214 23.79l-.6066667 1.6206667zm-8.476 9.1866666H9.984L11.466 33.332h.5373333L10.894 34.268l-.7626667.3293333zm2.6-2.002l-.0866666.0953334-.3813334.1473333.5026667-.2946667-.0346667.052zm-1.612 1.9933334l.2166667-.1473334-.416.442.1993333-.2946666zM13.91 30.7493333l-.26.416-.234-.1213333-.4333333-.442 1.352-.5806667-.4246667.728zm-1.326.0433334l.5546667.5633333.234.1213333-.1473334.2253334-1.8546666 1.2306666-.6586667-.26-.5113333-.4246666 2.3833333-1.456zm-2.76466667 1.664l.61533337.5286666.4593333.182-1.586 1.4993334-.64133333-.234-.58933334-.4073334 1.742-1.5686666zm7.01999997-3.0853334L16.562 28.6l-.0433333-1.2133333.8666666-1.794.5286667-1.1093334v.39L18.3733333 26l-.8666666 1.9066667-.6673334 1.4646666zM57.98 33.1586667l-.3206667-.2253334-.3206666-.3986666 1.404.9273333L57.98 33.1586667zM57.0093333 31.824l-.2686666-.13-.4073334-.546L55.64 29.9693333 58.0666667 31.096l-.468.4333333-.5893334.2946667zM59.722 28.236l-3.0333333-1.4646667L57.2 25.2286667 60.3286667 26.702 59.722 28.236zm-3.4666667-1.6206667L53.3866667 25.636l-.5113334-1.0226667.208-.7973333L56.732 25.0726667l-.4766667 1.5426666zm-3.6573333-2.6l-.1906667-.3986666.2773334.0606666-.0866667.338zM50.3186667 21.32l.0606666-.3813333.5893334 1.274.8666666 1.8633333L51.688 25.1333333l-.3813333.7453334-.6933334-1.6293334-.806-1.9413333.5113334-.988zm-13.052-19.58666667L37.0673333 1.56l.1993334.17333333zm-.416.26L36.686 2.054l-.286-.32066667h.0606667l.39.26zm-.3466667.546L36.9373333 3.276l.4073334.78-.3553334.08666667-.4766666.08666666L36.296 3.36266667 36.088 2.652h.1733333L36.504 2.53933333zM35.8973333 3.406l.208.86666667h-.936v-1.612H35.6373333l.26.74533333zm-.6586666-1.93266667v.078-.078zm-.416 0H34.762l.0693333-.13-.0086666.13zm0 .416v.364H34.45l.1386667-.364H34.8226667zm-.6673334-.104L34.0166667 2.158 33.8 2.19266667 34.0773333 1.846l.078-.06066667zm-1.4733333 1.248L32.2226667 3.9l-.3553334-.14733333-.234-.11266667.598-.71066667.6326667-.65.1213333.06933334h.078L32.682 3.03333333zM32.4306667 1.976l-.5893334.60666667-.624.754-.156-.13L30.9486667 3.068 31.668 2.40933333 32.4306667 1.976zm-.7106667 0l.2773333-.16466667L31.72 1.976zm-3.6226667 3.55333333l.546-.68466666.1213334.286-.806 1.144-.65 1.014L27.248 7.14133333v-.468l.8493333-1.144zM22.6286667 19.0666667l.91.728L22.854 21.71l-.6586667 1.8286667-.936-.7366667-.7106666-.8666667.8666666-1.8546666.728-1.6293334.4853334.6153334zm-1.144-1.9326667l.3466666.8666667L20.9646667 19.864l-.6673334 1.5166667-.2253333-.546v-.9533334l1.404-2.9206666.0086667.1733333zM15.678 27.638l-.078.0953333L15.1493333 26.546 16.406 26.1646667 15.678 27.638zm-.9446667-.9446667l.494 1.326.078.1646667-.546 1.04-.026.2426667-1.976.8666666-.624-.9793333-.5806666-1.2826667 3.1806666-1.378zm-3.562 1.5686667l.572 1.274.5806667.8666667-2.46133333 1.456L9.23 30.992l-.64133333-1.1786667L11.1713333 28.262zm-2.92066663 1.8026667l.65866666 1.2046666.64133334.8666667-1.83733334 1.612-.676-.8146667-.728-1.2046666 1.94133334-1.664zm-.51133334 4.264l.676.4593333.53733334.156-.988 1.456-1.23933334-.6933333 1.014-1.378zM8.90066667 36.79L9.36 36.5906667 9.16933333 37.154l-.50266666-.3293333.234-.0346667zM10.166 37.4053333l.5633333-.5893333v.988l-.7106666-.286.1473333-.1126667zm3.2673333-.9446666L13 35.3513333 12.9566667 33.878l.8666666-1.404.52-.936v.6846667l.5633334 1.326-.8666667 1.638-.6066667 1.274zm4.3333334-.546l-1.3433334-1.0833334L15.4266667 33.592l.7886666-1.69.702-1.5686667L17.706 31.304l1.3606667 1.066L18.382 34.242l-.6153333 1.6726667zm10.504 4.082l2.99.3553333 3.1026666.1473333V42.094L28.002 41.782l.2686667-1.7853333zm31.252-6.5606667l-2.0973334-1.3693333L57.798 31.876l.5893333-.546 2.2793334 1.4473333L60.138 33.202l-.6153333.234zm3.016-3.3886667l-2.4093334-1.612.5373334-1.5166666L63.1193333 28.6l-.5806666 1.4473333zm-2.08-3.744l-3.146-1.482.52-2.0193333L61.048 24.3446667l-.5893333 1.9586666zm-7.592-3.0073333l-.598-.1473333-.2686667-.442L51.1333333 20.878 51.038 20.696l2.2013333.5373333L52.8666667 23.296zm-3.614-4.8966667l.8666666 1.794L49.972 21.164l-.338.624-.6933333-1.612-.806-1.8546667.442-.8666666v-.26l.676 1.2046666zm-2.886-4.758l-.208.3986667-.6673334-1.4126667-.7973333-1.612.312-.5893333v-.078l.6066667 1.0573333L46.4793333 13l-.1126666.6413333zm-13.546-11.90799997l.182-.11266666-.182.11266666zM23.2873333 13.4246667l.2946667.7366666-.8233333 1.7333334-.6673334 1.482-.182-.4506667v-.8666667L22.776 14.326l.52-1.0053333-.0086667.104zm-5.85 10.712L16.666 25.662l-1.6466667.5026667L14.56 24.5873333l3.1113333-.9446666-.234.494zM10.504 26.3553333l.546 1.5253334-2.63466667 1.586L7.8 27.9673333l2.704-1.612zm-3.03333333 1.872l.598 1.4473334-1.95 1.69-.65-1.4213334 2.002-1.716zM5.2 30.3333333l.63266667 1.378-1.26533334 1.7333334-.68466666-1.378L5.2 30.3333333zM3.67466667 32.578l.60666666 1.222L4.238 33.9386667l-.77133333-.6413334.208-.7193333zm9.78466663 6.292l-.78-.3206667v-.0606666l.754-1.222.9966667 1.248 1.144.8666666L13.4593333 38.87zM21.918 40.3606667l.5026667-1.7333334 2.5566666.7366667 2.834.5633333-.2773333 1.794-4.3333333-.5286666-1.456-.2946667.1733333-.5373333zm33.358-1.0313334l-.8666667.2253334.728-.52 1.196-1.2653334.5633334.962-1.6206667.598zm4.836-1.846l-.6846667-.728L59.228 35.828l.3726667.39.8666666.6586667.338.1646666-.6933333.442zM61.334 36.868l-.5806667-.3033333-.8666666-.6413334L59.02 35.0566667l-.182-.3033334.6066667.442.8666666.3726667h.078l.7366667.078.6066667.9966667L61.334 36.868zm0-1.638L59.8 33.748l.4766667-.1733333.6326666-.5026667 1.6293334 1.5773333-.6153334.416L61.334 35.23zm1.6206667-.8666667L61.308 32.76l.6846667-.8666667.65-1.1786666L64.376 32.448l-.7453333 1.2133333-.676.702zm1.638-2.3573333l-1.7333334-1.6813333.6066667-1.4473334 1.7853333 1.7333334L64.5926667 32.006zm2.1926666.286l-1.0486666-1.7333333.6586666-1.7333334 1.0833334 1.794L66.7853333 32.292zm-2.73-6.4653333l-2.6-1.69.6326667-2.47L64.688 23.4l-.6326667 2.4266667zM61.126 23.9373333l-3.2326667-1.5426666.52-2.4613334 3.302 1.5426667L61.126 23.9373333zm-7.8-3.12L50.8213333 20.202l-.5546666-1.1353333L49.4 17.264l4.3333333 1.0486667L53.326 20.8173333zm-33.2886667-2.1146666L19.318 20.202l-1.118.2253333-.3986667-2.5566666L20.7046667 17.238l-.6673334 1.4646667zm-2.132 2.236L18.2 22.5333333l-.2946667.598-3.4666666 1.0573334-.4853334-2.028 3.952-1.222zM13.572 22.308l.4766667 2.028-3.302 1.4213333-.5633334-1.9846666L13.572 22.308zm-3.77 1.664l.598 1.976-2.73 1.6206667L7.046 25.61l2.756-1.638zM6.69933333 25.87l.61533334 1.9413333-2.002 1.7333334L4.61933333 27.664l2.08-1.794zm-2.366 2.158l.676 1.8286667L3.718 31.59l-.69333333-1.7333333L4.33333333 28.028zM2.782 30.4113333l.63266667 1.6553334-.312.8666666-.86666667-1.04.546-1.482zm60.398 5.512l-1.0573333.546-.5373334-.8666666.5806667-.1733334.6586667-.4506666.5026666.8666666-.1473333.078zM67.0453333 32.864v-.104l.6153334-1.5166667.1646666.8146667-.78.806zm.598-2.834l-1.0746666-1.7333333L67.2533333 26l1.092 1.82-.702 2.21zM68.51 27.2653333l-1.0833333-1.8026666.702-2.7733334 1.1266666 1.8633334L68.51 27.2653333zm-1.4386667-2.132l-1.8806666-1.8286666.676-2.9553334 1.9413333 1.872-.7366667 2.912zM64.8266667 22.984l-2.6-1.7333333L62.8073333 18.2l2.6953334 1.8026667-.676 2.9813333zM61.802 21.0166667L58.4913333 19.474l.546-3.0766667 3.3626667 1.612-.598 3.0073334zm-3.7006667-1.7333334L54.1926667 17.94l.4506666-3.12 4.004 1.378-.546 3.0853333zM53.768 17.8186667l-4.368-1.014.338-3.172 4.5066667 1.1006666L53.768 17.8186667zm-31.98-2.73l-.8233333 1.638-3.198.702-.39-3.146L21.9873333 13.286 22.1 14.4733333l-.312.6153334zm-4.4546667 2.4786666l-4.056 1.248L12.766 15.7126667l4.1773333-1.2913334.39 3.146zM13 19.37l.494 2.5306667L10.088 23.4l-.55466667-2.5393333L13 19.37zm-3.89133333 1.69L9.698 23.556l-2.76466667 1.638L6.266 22.7586667 9.10866667 21.06zM5.902 23.036l.65866667 2.4093333-2.08 1.7766667-.69333334-2.366L5.902 23.036zm-2.43533333 2.21l.676 2.3053333-1.3 1.794L2.132 27.0746667 3.46666667 25.246zm-1.57733334 2.4873333L2.548 29.822l-.55466667 1.6293333-.676-2.0453333.572-1.6726667zM.86666667 29.4666667V29.562l-.364-.962v-.6153333l.364 1.482zM67.2706667 34.84l-.7973334 2.4266667L64.4886667 39.364 62.218 40.976l.5633333-1.8546667.6933334-2.9033333.2946666-.2166667 2.1493334-1.5166666.26-.1906667h.052l.0953333-.0693333L67.8773333 32.578l-.6066666 2.262zm.8666666-3.1546667l-.2513333-1.144L68.536 28.6l.3553333 1.56-.1733333.5113333-.5806667 1.014zm1.586-4.706l-.6586666 2.3573334-.338-1.508.65-2.4006667.3466666 1.5513333zM49.322 13.5546667L49.01 16.51l-.5373333-1.1006667L47.606 13.676l-.2253333-.442 1.9413333.3206667zm-26.65-.156l-.208.4073333-.052-.5546667h.3553333l-.0953333.1473334zM12.402 15.86l.5113333 3.094-3.50999997 1.4993333-.58933333-3.042L12.402 15.86zm-3.96933333 1.7333333l.58066666 3.016L6.162 22.3426667 5.49466667 19.37l2.938-1.7766667zm-3.302 2.0453334l.65866666 2.9466666-2.12333333 1.82L2.95533333 21.502l2.17533334-1.8633333zM2.6 21.9093333l.69333333 2.834-1.3 1.82L1.25666667 23.79 2.6 21.9093333zM21.1553333 49.998L20.722 49.9113333 16.8133333 48.776l-.5026666-.4506667-.2686667-.4506666 3.7006667 1.066 4.472.8666666.2773333.754.0433333.0606667-3.4146666-.6846667.0346666.0606667zm40.1613334-5.46L60.45 45.1446667l.0866667-.1213334 1.4126666-.9966666-.6326666.5113333zm6.344-9.5333333l.052-.156.8666666-3.0766667L68.9 31.2l-.3553333 1.2826667-.884 2.522z" fill="#3D9D9E" fill-rule="nonzero"/></g></svg>